<svg version="1.1" id="Layer_1" xmlns="http://www.w3.org/2000/svg" xmlns:xlink="http://www.w3.org/1999/xlink" x="0px" y="0px"
	 width="100%" viewBox="0 0 240 240" enable-background="new 0 0 240 240" xml:space="preserve">
<path fill="transparent" opacity="1.000000" stroke="none" 
	d="
M123.531342,1.000000 
	C122.011078,5.037258 119.051262,8.425037 115.773109,11.312981 
	C107.191643,18.872974 99.197975,26.995556 91.513512,35.434570 
	C89.808334,37.307186 87.789627,37.366711 85.612030,37.364754 
	C71.954666,37.352467 58.297298,37.348766 44.639950,37.331551 
	C37.365829,37.322384 37.356503,37.312721 37.352535,44.362705 
	C37.344849,58.020088 37.280308,71.678070 37.397480,85.334442 
	C37.425747,88.629417 35.885651,90.464798 33.730331,92.867393 
	C27.080362,100.280319 18.879721,106.121834 12.788292,114.056152 
	C9.728955,118.041061 5.481658,120.753258 1.345632,123.975334 
	C1.000000,83.073036 1.000000,42.146069 1.000000,1.000000 
	C41.687298,1.000000 82.374992,1.000000 123.531342,1.000000 
z"/>
<path fill="transparent" opacity="1.000000" stroke="none" 
	d="
M1.000000,126.468658 
	C11.065905,137.557327 22.416267,147.861237 33.136402,158.778839 
	C36.165771,161.864014 37.521366,164.952423 37.440170,169.301361 
	C37.191589,182.615540 37.475449,195.939194 37.275471,209.255020 
	C37.214710,213.300980 38.357063,214.808884 42.608425,214.737656 
	C56.256306,214.508987 69.911728,214.759140 83.561539,214.596939 
	C87.157303,214.554230 89.933487,215.447891 92.401764,218.126236 
	C99.387474,225.706436 107.322807,232.370880 113.966278,240.660904 
	C76.405731,241.000000 38.811466,241.000000 1.000000,241.000000 
	C1.000000,202.979385 1.000000,164.958344 1.000000,126.468658 
z"/>
<path fill="transparent" opacity="1.000000" stroke="none" 
	d="
M241.000000,114.531342 
	C232.773651,106.751961 224.573700,98.477303 216.300064,90.276978 
	C214.514816,88.507530 214.662506,86.392342 214.661667,84.241226 
	C214.656250,70.413437 214.540253,56.583942 214.735550,42.758888 
	C214.794113,38.612164 213.387344,37.218643 209.251907,37.276321 
	C195.593399,37.466812 181.929428,37.252560 168.270142,37.413448 
	C164.842590,37.453823 162.320572,36.477211 159.905426,34.027523 
	C149.148788,23.117022 138.234665,12.361775 127.188728,1.275210 
	C164.926956,1.000000 202.853912,1.000000 241.000000,1.000000 
	C241.000000,38.687279 241.000000,76.374977 241.000000,114.531342 
z"/>
<path fill="transparent" opacity="1.000000" stroke="none" 
	d="
M138.468658,241.000000 
	C142.411880,234.252396 149.388916,229.858414 154.230026,223.593903 
	C159.989609,216.140884 167.026321,213.798828 176.270737,214.468338 
	C187.028870,215.247482 197.890854,214.474274 208.698395,214.746338 
	C213.193695,214.859512 214.857483,213.591034 214.760895,208.865082 
	C214.482178,195.228104 214.736923,181.581039 214.609634,167.939545 
	C214.579514,164.711121 215.474014,162.315552 217.863129,160.050201 
	C225.460037,152.846771 232.849350,145.424408 240.659454,138.043335 
	C241.000000,172.260269 241.000000,206.520538 241.000000,241.000000 
	C206.979416,241.000000 172.958374,241.000000 138.468658,241.000000 
z"/>
<path fill="white" opacity="1.000000" stroke="none" 
	d="
M167.785797,75.851517 
	C171.670792,78.230034 171.589584,75.487244 171.610291,73.276787 
	C171.678650,65.975861 171.636063,58.673893 171.636063,50.722973 
	C179.886765,50.722973 188.166107,50.721813 196.445450,50.723770 
	C198.603622,50.724281 199.308746,52.006386 199.307068,53.946648 
	C199.300781,61.276257 199.258270,68.606384 199.332993,75.935257 
	C199.364487,79.025017 197.509659,79.379128 195.090897,79.364418 
	C187.941284,79.320908 180.791245,79.348862 172.139511,79.348862 
	C185.344604,93.424141 191.470490,109.497414 191.163254,127.350807 
	C190.853027,145.376709 184.250259,161.355072 170.681503,173.756256 
	C142.585571,199.434601 107.226059,192.811401 88.547340,179.466934 
	C72.400208,167.931061 63.564041,152.200089 61.509415,132.328949 
	C59.459557,112.503983 66.001091,95.697151 79.612465,79.357056 
	C72.419304,79.357056 66.859253,79.411026 61.300606,79.345482 
	C50.680065,79.220268 51.727856,80.786644 51.656158,69.768707 
	C51.623642,64.771286 51.755135,59.771267 51.637985,54.776512 
	C51.568394,51.809364 52.714561,50.569664 55.736752,50.628559 
	C62.064762,50.751877 68.400352,50.794144 74.725807,50.617622 
	C78.155083,50.521923 79.512596,51.739429 79.392113,55.237259 
	C79.197250,60.894466 79.303314,66.564125 79.377327,72.227287 
	C79.400543,74.003593 78.913597,75.907776 80.671303,78.159653 
	C108.881317,56.572960 137.937408,54.122471 167.785797,75.851517 
M169.233139,90.182854 
	C166.752060,85.314835 162.083908,82.854271 157.818024,80.032562 
	C145.842102,72.110992 133.110245,67.952423 118.331398,70.191620 
	C81.422867,75.783806 58.246078,117.675873 75.552925,150.675674 
	C88.547043,175.452194 119.893524,189.577087 145.888977,178.789719 
	C167.866959,169.669449 182.146042,149.533356 182.582642,126.510170 
	C182.837357,113.078636 177.974304,101.224312 169.233139,90.182854 
z"/>
<path fill="white" opacity="1.000000" stroke="none" 
	d="
M144.065048,210.995605 
	C145.130539,212.164413 145.041183,213.055771 144.214661,213.887054 
	C138.128021,220.008606 132.034027,226.122879 126.217079,231.963608 
	C119.443581,225.219452 113.005630,218.809387 106.836189,212.666687 
	C112.976196,206.520584 119.480797,200.009521 126.591553,192.891693 
	C132.060394,198.553787 137.942062,204.643295 144.065048,210.995605 
z"/>
<path fill="white" opacity="1.000000" stroke="none" 
	d="
M109.913063,45.023766 
	C104.868340,39.951889 104.868042,39.951591 109.720192,35.087326 
	C113.837578,30.959665 117.994179,26.870140 122.057472,22.689903 
	C124.103561,20.584929 125.849129,20.537363 127.938591,22.699993 
	C132.683640,27.611189 137.572296,32.383415 142.384308,37.230267 
	C143.746124,38.601933 145.122574,40.351852 142.966782,41.830765 
	C136.298920,46.405014 132.642456,54.020687 125.875900,58.445347 
	C125.467560,58.712360 124.991089,58.875183 124.589188,59.066120 
	C119.756027,54.443634 114.963623,49.860130 109.913063,45.023766 
z"/>
<path fill="white" opacity="1.000000" stroke="none" 
	d="
M52.565311,117.437744 
	C55.129608,119.558487 57.453171,121.435135 59.600296,123.169289 
	C56.505383,128.784271 53.135975,132.341660 49.141449,135.398178 
	C47.433662,136.704941 45.778694,138.152802 44.379513,139.777512 
	C39.909149,144.968460 39.969109,145.002609 35.248276,140.328659 
	C31.105839,136.227356 26.946009,132.143524 22.780403,128.065735 
	C20.859335,126.185165 20.131815,124.442513 22.488163,122.191193 
	C27.424271,117.475105 32.258270,112.646408 36.995117,107.729942 
	C39.305592,105.331856 41.090046,105.635811 43.210693,107.936081 
	C46.144276,111.118172 49.277084,114.116585 52.565311,117.437744 
z"/>
<path fill="white" opacity="1.000000" stroke="none" 
	d="
M228.101318,127.983536 
	C223.478134,132.590820 219.096527,136.919174 214.764282,141.296417 
	C212.729797,143.352036 211.320847,143.722610 209.313477,140.881409 
	C204.724945,134.386826 196.859085,130.882935 192.860397,122.827972 
	C198.399063,117.395340 204.205261,111.729347 209.972610,106.024063 
	C211.515411,104.497841 212.924850,104.779327 214.296997,106.141968 
	C219.493378,111.302330 224.658096,116.494553 229.853363,121.656029 
	C232.750870,124.534676 229.930038,125.965591 228.101318,127.983536 
z"/>
<path fill="white" opacity="1.000000" stroke="none" 
	d="
M194.909821,171.650970 
	C199.767075,171.086060 201.725235,172.624939 201.434280,177.389282 
	C201.060822,183.505173 201.201279,189.665283 201.392654,195.797852 
	C201.501633,199.289963 200.142059,200.483582 196.733810,200.385406 
	C190.600418,200.208679 184.454895,200.224106 178.320831,200.392410 
	C174.971970,200.484299 173.506989,199.385971 173.607162,195.847488 
	C173.794891,189.216583 173.759628,182.574219 173.611862,175.941193 
	C173.539932,172.712540 174.809464,171.513824 177.998047,171.603989 
	C183.468658,171.758698 188.946762,171.649246 194.909821,171.650970 
z"/>
<path fill="white" opacity="1.000000" stroke="none" 
	d="
M50.655251,178.111145 
	C50.222519,174.048203 51.576542,172.465607 55.393261,172.608353 
	C61.549377,172.838593 67.722748,172.768234 73.884262,172.626434 
	C77.018066,172.554321 78.434860,173.605103 78.362831,176.913330 
	C78.217789,183.574600 78.242912,190.243149 78.373146,196.905258 
	C78.433868,200.011368 77.441772,201.474731 74.093132,201.384720 
	C67.766380,201.214661 61.427654,201.200409 55.102013,201.390793 
	C51.495075,201.499344 50.525341,199.894394 50.614922,196.592865 
	C50.777550,190.599197 50.656490,184.597824 50.655251,178.111145 
z"/>
</svg>